<?xml version="1.0" encoding="UTF-8" standalone="no"?><!DOCTYPE svg PUBLIC "-//W3C//DTD SVG 1.1//EN" "http://www.w3.org/Graphics/SVG/1.1/DTD/svg11.dtd"><svg width="100%" height="100%" viewBox="0 0 1267 1202" version="1.1" xmlns="http://www.w3.org/2000/svg" xmlns:xlink="http://www.w3.org/1999/xlink" xml:space="preserve" xmlns:serif="http://www.serif.com/" style="fill-rule:evenodd;clip-rule:evenodd;stroke-linejoin:round;stroke-miterlimit:1.41421;"><rect id="Artboard1" x="0" y="0" width="1266.52" height="1201.25" style="fill:none;"/><clipPath id="_clip1"><rect x="0" y="0" width="1266.52" height="1201.25"/></clipPath><g clip-path="url(#_clip1)"><g id="Layer-1" serif:id="Layer 1"><path d="M676.376,1446.77c-1.318,14.812 -1.381,29.619 0.031,44.429c2.205,-6.241 2.188,-38.341 -0.031,-44.429m-431.867,46.167c1.794,-6.326 0.97,-11.307 1.102,-16.148c0.144,-5.376 0.31,-10.774 -0.052,-16.126c-0.314,-4.667 1.539,-9.741 -1.91,-15.248c-1.613,10.198 -1.236,40.593 0.86,47.522m674.612,-44.604c-8.328,-3.273 -27.333,-2.816 -31.71,-0.061c5.093,0.296 9.569,0.557 14.219,0.822c1.261,14.423 -0.437,28.416 1.019,42.241l1.977,0l0,-42.23c5.508,-0.295 9.998,-0.534 14.495,-0.772m-628.586,34.292c-2.78,2.207 -4.373,3.615 -6.107,4.82c-6.218,4.324 -13.802,3.126 -18.475,-2.849c-5.868,-7.506 -6.45,-22.798 -1.164,-30.668c4.565,-6.798 12.932,-7.966 19.371,-2.721c1.004,0.819 2.064,1.569 4.188,3.179c-5.254,-10.485 -17.618,-11.652 -24.643,-3.634c-7.842,8.956 -7.137,28.707 1.33,37.123c7.643,7.604 19.891,5.724 25.5,-5.25m431.095,0.518c-0.619,0.197 -1.233,0.393 -1.852,0.587c-4.399,-6.254 -8.654,-12.611 -13.233,-18.731c-4.629,-6.182 -8.152,-13.271 -15.474,-19.987c0.104,16.659 -0.263,31.465 0.261,46.261c0.737,0.019 1.478,0.039 2.215,0.054c0.183,-12.321 0.368,-24.644 0.55,-36.963c4.525,4.01 7.619,8.349 10.691,12.705c2.953,4.19 5.686,8.552 8.884,12.546c3.156,3.945 4.729,9.374 10.06,11.917c1.418,-11.754 0.942,-39.525 -0.89,-45.319c-2.21,6.503 -0.955,12.651 -1.165,18.666c-0.214,6.082 -0.047,12.177 -0.047,18.264m41.049,-9.954c-0.141,3.122 0.032,5.949 -0.455,8.658c-1.164,6.517 -6.148,9.603 -12.508,7.509c-2.545,-0.838 -5.137,-2.48 -6.945,-4.455c-6.775,-7.407 -7.309,-22.774 -1.403,-30.973c5.103,-7.09 12.98,-7.845 19.836,-1.971c0.693,0.593 1.694,0.828 3.64,1.738c-6.694,-10.226 -18.217,-10.647 -25.132,-2.08c-7.456,9.239 -7.058,26.23 0.963,35.013c1.521,1.667 3.417,3.174 5.426,4.185c9.74,4.898 18.332,0.179 19.355,-10.616c0.301,-3.168 0.047,-6.386 0.047,-9.368l-11.219,0c-0.018,0.358 -0.041,0.712 -0.062,1.07c2.422,0.371 4.845,0.738 8.457,1.29m-286.396,-19.582c0.366,-0.206 0.731,-0.414 1.097,-0.617c-0.152,-0.673 -0.104,-1.504 -0.487,-1.997c-6.059,-7.757 -17.437,-7.4 -23.93,0.707c-7.489,9.354 -7.019,26.199 1.083,35.036c1.365,1.487 3.006,2.852 4.768,3.822c9.782,5.379 18.968,0.518 19.907,-10.53c0.255,-2.994 0.038,-6.029 0.038,-9.135l-11.148,0c1.128,1.299 2.326,1.462 3.518,1.65c1.457,0.229 2.912,0.48 4.829,0.796c-0.164,3.118 -0.023,5.956 -0.511,8.687c-1.108,6.204 -5.81,9.309 -11.885,7.462c-2.787,-0.848 -5.665,-2.614 -7.615,-4.77c-6.814,-7.525 -7.178,-22.842 -1.139,-30.994c5.036,-6.801 12.974,-7.673 19.339,-2.119c0.733,0.644 1.426,1.334 2.136,2.002m-37.006,16.293c-0.098,-7.716 -1.784,-14.067 -6.541,-19.262c-6.436,-7.028 -16.215,-6.8 -22.156,0.425c-7.782,9.461 -7.703,26.636 0.169,35.858c6.529,7.651 17.107,7.431 23.263,-0.515c3.954,-5.102 5.208,-11.048 5.265,-16.506m-286.749,-0.897c0.099,7.077 1.692,13.195 6.145,18.267c5.93,6.752 15.629,6.96 21.784,0.552c9.074,-9.455 8.603,-29.086 -0.918,-38.046c-6.616,-6.229 -16.038,-5.546 -21.6,1.609c-4.134,5.32 -5.333,11.545 -5.411,17.618m1029.26,0.053c-0.423,-6.963 -2.059,-13.359 -6.844,-18.515c-6.489,-6.991 -16.261,-6.674 -22.164,0.613c-7.475,9.232 -7.541,26.017 -0.137,35.294c6.689,8.385 17.97,8.033 24.207,-0.797c3.533,-5.006 4.694,-10.738 4.938,-16.595m11.162,-23.137c-1.728,1.181 -2.447,1.437 -2.45,1.702c-0.135,10.747 -0.772,21.532 -0.101,32.233c0.515,8.181 7.585,12.854 16.573,12.506c9.316,-0.361 14.77,-5.166 15.046,-14.019c0.305,-9.74 0.073,-19.499 0.019,-29.253c-0.003,-0.828 -0.424,-1.653 -0.649,-2.481l-1.526,0c-0.228,2.073 -0.634,4.148 -0.656,6.225c-0.081,8.213 0.085,16.425 -0.09,24.633c-0.144,6.924 -2.8,10.099 -8.702,11.92c-8.687,2.677 -18.085,-3.057 -17.567,-13.35c0.49,-9.691 0.103,-19.431 0.103,-30.116m-58.098,9.6c0.512,-0.34 1.02,-0.676 1.532,-1.014c-0.478,-1.306 -0.654,-2.862 -1.485,-3.881c-4.766,-5.866 -17.218,-7.322 -23.416,-2.875c-5.052,3.625 -5.739,11.165 -1.054,15.432c2.017,1.837 4.719,3.017 7.261,4.158c4.202,1.89 8.69,3.204 12.763,5.324c4.102,2.136 5.736,5.833 4.942,9.548c-0.84,3.919 -3.411,6.063 -7.254,7.085c-6.593,1.751 -12.151,0.312 -16.755,-4.789c-1.01,-1.119 -2.209,-2.07 -3.324,-3.099c4.03,10.7 16.912,14.58 25.642,8.316c1.575,-1.13 2.925,-2.934 3.728,-4.721c2.821,-6.288 0.16,-12.543 -6.791,-15.765c-4.882,-2.263 -10.036,-3.93 -14.937,-6.15c-3.452,-1.563 -6.044,-4.104 -5.395,-8.38c0.64,-4.219 3.838,-5.834 7.529,-6.69c7.331,-1.704 12.982,0.904 17.014,7.501m-807.885,-9.571c-1.759,12.182 -1.205,40.466 1.843,45.356l0,-23.18c6.394,0 11.715,0.286 16.992,-0.073c6.397,-0.435 9.472,-4.132 9.576,-10.636c0.108,-6.892 -3.087,-10.968 -9.7,-11.385c-6.09,-0.384 -12.223,-0.082 -18.711,-0.082m494.939,-1.592c-6.004,8.756 -18.351,42.652 -17.52,47.805c1.716,-3.414 3.15,-6.276 4.491,-8.939l25.512,0c1.667,3.04 3.163,5.77 4.657,8.499c0.553,-0.265 1.101,-0.535 1.65,-0.803c-5.802,-15.228 -11.413,-30.535 -18.79,-46.562m-285.402,38.935l25.808,0c1.588,3.081 2.975,5.774 4.361,8.466c-0.306,-9.248 -13.921,-42.323 -18.002,-46.133c-3.819,4.4 -4.746,10.076 -6.866,15.166c-2.072,4.977 -4.114,9.989 -5.763,15.114c-1.623,5.043 -4.944,9.674 -3.618,15.608c1.335,-2.695 2.673,-5.388 4.08,-8.221m-481.589,8.264c0.569,-0.3 1.137,-0.597 1.703,-0.896c-1.971,-5.191 -3.918,-10.394 -5.92,-15.572c-1.942,-5.03 -3.694,-10.154 -5.984,-15.024c-2.284,-4.855 -2.607,-10.852 -8.236,-15.157c-1.834,4.416 -3.418,8.109 -4.903,11.843c-1.515,3.816 -2.934,7.671 -4.395,11.513c-1.554,4.079 -3.225,8.118 -4.624,12.251c-1.192,3.515 -3.314,6.882 -3.4,10.648c0.511,0.154 1.021,0.307 1.532,0.462c1.452,-2.866 2.904,-5.735 4.253,-8.401l25.604,0c1.58,3.012 2.976,5.673 4.37,8.333m918.863,-47.158c-5.387,6.587 -18.583,41.394 -18.472,48.423c1.998,-3.922 3.432,-6.734 4.938,-9.69l25.554,0c0.819,1.695 1.512,3.329 2.385,4.862c0.714,1.258 1.64,2.397 2.475,3.586c0.487,-0.298 0.976,-0.599 1.463,-0.902c-5.957,-15.03 -11.915,-30.061 -18.343,-46.279m-909.541,1.604c-1.901,11.777 -1.311,40.632 1.339,46.249c0.367,-7.923 0.677,-14.636 0.98,-21.185c11.315,-0.977 11.315,-0.977 17.222,7.226c2.697,3.75 5.352,7.532 8.114,11.232c0.636,0.853 1.636,1.437 2.469,2.146c0.054,-4.465 -2.92,-7.026 -4.923,-10.091c-2.215,-3.389 -4.657,-6.631 -7.086,-10.056c1.123,-0.492 1.55,-0.772 2.014,-0.868c8.138,-1.693 11.908,-5.868 11.464,-12.732c-0.45,-6.976 -5.625,-11.638 -13.554,-11.886c-5.864,-0.183 -11.74,-0.035 -18.039,-0.035m-54.706,1.111c-0.645,-0.02 -1.289,-0.034 -1.934,-0.051c-0.273,6.148 -0.546,12.295 -0.833,18.773c-8.611,0.51 -16.625,0.473 -24.387,0.13c-1.545,-6.931 0.64,-13.314 -2.131,-19.022c-2.146,8.294 -1.77,39.148 1.096,44.301c0.272,-7.347 0.543,-14.694 0.807,-21.834l24.278,0c2.095,7.451 -0.967,14.958 3.104,21.692l0,-43.989Zm648.132,44.026c0.766,-0.031 1.534,-0.062 2.303,-0.094c0.523,-7.534 0.348,-15.122 0.185,-22.669c-0.163,-7.375 1.102,-14.92 -1.362,-23.669c-7.581,7.402 -11.103,15.9 -17.52,22.847c-2.852,-3.998 -5.328,-7.861 -8.212,-11.391c-2.733,-3.349 -3.941,-8.25 -8.887,-9.876c-1.971,7.895 -1.688,39.754 1.28,45.015c0.145,-12.783 0.285,-25.568 0.427,-38.353c0.496,-0.066 0.992,-0.132 1.488,-0.198c4.55,6.28 9.103,12.558 14.065,19.406c6.049,-6.697 9.222,-14.341 16.233,-21.022l0,40.004Zm-46.092,-44.431c-0.635,-0.3 -1.268,-0.599 -1.905,-0.9c-6.499,6.135 -9.886,14.921 -16.327,21.507c-6.189,-7.014 -9.885,-15.372 -16.883,-21.919c-2.81,5.843 -1.375,11.021 -1.623,16.004c-0.252,5.125 -0.314,10.286 0.02,15.401c0.313,4.789 -1.487,9.91 2.064,14.358c0.731,-6.336 0.597,-12.645 0.768,-18.945c0.176,-6.412 -0.768,-12.922 0.842,-20.601c5.404,7.437 9.963,13.719 14.765,20.329c6.278,-6.196 8.993,-13.918 16.032,-20.196l0,14.396c0,4.364 -0.1,8.733 0.03,13.096c0.121,3.946 -0.629,8.048 0.638,11.839c0.527,-0.053 1.054,-0.104 1.579,-0.158l0,-44.211Zm662.185,43.966c13.182,2.495 21.631,0.149 26.746,-7.185c5.324,-7.637 5.937,-21.098 1.045,-28.443c-6.794,-10.205 -16.949,-9.688 -27.791,-8.551l0,44.179Zm-231.658,-44.331l0,44.539c14.061,2.018 22.026,-0.151 26.679,-7.836c5.269,-8.701 6.006,-18.188 1.193,-27.154c-5.9,-10.982 -16.567,-10.459 -27.872,-9.549m-531.156,24.763c1.57,-0.276 2.564,-0.383 3.525,-0.631c6.58,-1.682 9.685,-5.575 9.602,-11.986c-0.082,-6.363 -4.133,-11.627 -10.563,-12.167c-7.03,-0.587 -14.149,-0.131 -21.063,-0.131c-2.127,12.766 -1.355,41.114 2.106,46.606l0,-21.437c8.379,-2.28 14.015,-0.376 17.537,6.709c0.788,1.589 2.054,2.938 3.118,4.389c2.314,3.143 4.641,6.284 6.962,9.428c0.452,-0.325 0.902,-0.652 1.353,-0.978c-2.643,-7.109 -8.708,-12.186 -12.577,-19.802m-128.243,0.217c1.627,-0.386 2.522,-0.589 3.411,-0.812c7.023,-1.743 10.216,-5.746 9.927,-12.456c-0.274,-6.363 -4.413,-11.306 -10.98,-11.799c-6.824,-0.515 -13.716,-0.116 -21.282,-0.116c-0.321,15.426 -0.845,30.201 0.246,44.953c0.738,0.015 1.475,0.029 2.213,0.043l0,-19.58c8.363,-2.58 13.867,-0.861 17.688,6.209c2.176,4.03 5.254,7.582 8.033,11.27c0.737,0.977 1.862,1.67 2.81,2.487c0.4,-0.38 0.8,-0.755 1.202,-1.136c-4.299,-6.178 -8.6,-12.357 -13.268,-19.063m849.807,21.675c1.208,-13.943 -0.054,-26.253 1.565,-38.697c5.229,6.123 9.682,12.554 14.295,18.864c4.543,6.213 8.362,13.033 14.318,19.315c2.072,-11.906 1.472,-41.278 -1.243,-45.44c-0.542,3.929 -0.598,7.886 -0.617,11.843c-0.019,4.369 0.153,8.746 -0.051,13.105c-0.175,3.807 0.995,7.833 -1.287,12.223c-3.467,-4.852 -6.46,-9.006 -9.419,-13.187c-3.117,-4.405 -6.042,-8.955 -9.343,-13.217c-2.981,-3.853 -4.797,-8.787 -9.561,-11.641c-1.918,9.903 -1.437,40.229 1.343,46.832m-203.338,-9.706c-0.668,0.137 -1.336,0.276 -2.008,0.411c-4.428,-6.248 -8.761,-12.563 -13.309,-18.721c-4.599,-6.231 -8.359,-13.141 -14.268,-19.162c-1.741,8.05 -1.619,39.573 0.411,45.461c0.703,-1.7 1.242,-3.492 1.262,-5.291c0.091,-8.981 0.003,-17.965 0.082,-26.946c0.012,-1.56 0.511,-3.116 0.978,-5.774c3.712,5.219 6.688,9.386 9.637,13.565c3.11,4.4 6.064,8.918 9.323,13.203c2.969,3.893 4.867,8.749 9.475,11.684c2.174,-9.472 1.618,-40.432 -1.583,-46.282l0,37.852Zm-181.571,7.926c0.775,0.009 1.547,0.016 2.319,0.022l0,-19.61c8.438,-2.716 13.836,-0.853 17.604,6.182c2.16,4.029 5.225,7.586 8.002,11.263c0.754,0.997 1.94,1.667 2.928,2.489c0.421,-0.357 0.842,-0.716 1.262,-1.073c-4.444,-6.289 -8.887,-12.577 -13.704,-19.394c2.071,-0.317 3.088,-0.389 4.058,-0.634c6.511,-1.641 9.69,-5.633 9.603,-11.988c-0.089,-6.281 -4.184,-11.601 -10.586,-12.151c-7.02,-0.598 -14.133,-0.133 -21.486,-0.133l0,45.027Zm-650.25,-45.113c-0.782,0.219 -1.562,0.443 -2.341,0.663l0,15.043c0,5.128 -0.286,10.274 0.084,15.377c0.34,4.703 -1.654,9.81 2.137,14.111c0.727,-6.109 0.697,-12.174 0.734,-18.244c0.039,-6.208 0.148,-12.411 0.225,-18.619c0.528,-0.109 1.058,-0.215 1.586,-0.325c3.069,4.361 6.14,8.722 9.207,13.085c2.946,4.196 5.692,8.552 8.893,12.54c3.151,3.932 4.729,9.351 10.8,12.231l0,-16.208c0,-4.87 0.278,-9.76 -0.078,-14.607c-0.347,-4.728 1.566,-9.819 -2.82,-14.178l0,36.261c-0.589,0.208 -1.177,0.414 -1.765,0.617c-8.888,-12.58 -17.776,-25.163 -26.662,-37.747m-91.304,-0.134c-0.584,0.212 -1.166,0.429 -1.75,0.643c-0.098,5.002 -0.232,10.005 -0.279,15.006c-0.05,5.133 -0.262,10.28 0.061,15.395c0.3,4.761 -1.426,9.839 2.062,14.278c0.814,-6.314 0.785,-12.593 0.82,-18.869c0.04,-6.47 0.144,-12.938 0.218,-19.405c0.473,-0.076 0.947,-0.151 1.42,-0.226c4.548,6.291 9.094,12.581 14.21,19.657c5.096,-7.287 9.417,-13.462 13.737,-19.639c0.577,0.141 1.153,0.279 1.73,0.422c0,6.266 -0.232,12.541 0.066,18.794c0.301,6.363 -1.324,12.934 1.426,20.239c2.262,-9.217 1.8,-41.399 -0.884,-47.12c-5.475,7.591 -10.623,14.727 -16.036,22.232c-6.665,-6.625 -9.962,-15.564 -16.801,-21.407m762.733,-117.129c-11.033,-16.725 -21.345,-32.366 -31.666,-48c-1.133,-1.713 -2.162,-3.527 -3.499,-5.061c-2.683,-3.075 -6.336,-3.675 -9.7,-1.836c-3.55,1.939 -5.275,6.021 -3.785,9.876c0.819,2.121 2.225,4.038 3.5,5.959c11.09,16.688 22.044,33.47 33.423,49.958c3.109,4.512 4.331,8.949 4.236,14.306c-0.241,14.127 -0.088,28.265 -0.075,42.395c0,2.056 -0.135,4.14 0.154,6.16c0.662,4.636 3.112,6.606 7.877,6.658c4.902,0.057 7.236,-1.65 8.102,-6.382c0.411,-2.246 0.336,-4.6 0.339,-6.904c0.028,-14.391 0.12,-28.782 -0.047,-43.166c-0.05,-4.3 1.032,-7.895 3.407,-11.501c11.163,-16.945 22.115,-34.029 33.12,-51.079c1.249,-1.939 2.624,-3.866 3.468,-5.984c1.531,-3.864 0,-7.726 -3.584,-9.976c-3.509,-2.203 -7.592,-1.694 -10.391,1.523c-1.34,1.536 -2.363,3.353 -3.479,5.08c-8.662,13.365 -17.301,26.742 -25.972,40.1c-1.506,2.321 -3.135,4.56 -5.428,7.874m111.323,-38.303l0,9.621c0,33.666 -0.003,67.33 0.005,100.996c0,2.312 -0.125,4.647 0.155,6.929c0.666,5.409 3.436,7.738 8.736,7.643c5.291,-0.091 7.748,-2.484 8.141,-8.104c0.14,-2.046 0.049,-4.108 0.049,-6.164c0.003,-33.922 0,-67.845 0,-101.767l0,-8.718c3.405,-0.176 5.91,-0.405 8.414,-0.418c8.997,-0.056 17.997,-0.257 26.98,0.02c8.728,0.269 10.036,-9.066 7.115,-13.855c-2.2,-3.606 -5.94,-3.599 -9.591,-3.599c-20.042,-0.007 -40.088,-0.01 -60.13,-0.007c-8.226,0.004 -16.454,-0.15 -24.672,0.101c-6.434,0.198 -9.013,3.081 -8.874,9.05c0.128,5.649 2.51,8.07 8.786,8.209c8.475,0.186 16.958,0.057 25.44,0.063l9.446,0Zm98.58,38.313c0,-5.097 0.003,-9.408 0,-13.721c-0.007,-11.305 0.118,-22.609 -0.086,-33.909c-0.094,-5.184 -2.83,-7.691 -7.566,-7.851c-4.742,-0.157 -7.509,2.174 -8.21,7.211c-0.315,2.275 -0.303,4.61 -0.303,6.917c-0.016,35.71 -0.019,71.418 0.004,107.127c0.002,2.564 -0.01,5.159 0.353,7.685c0.741,5.141 3.18,6.985 8.423,6.758c5.213,-0.229 7.283,-2.425 7.334,-8.659c0.125,-15.158 0.028,-30.315 0.065,-45.472c0.007,-2.73 0.234,-5.459 0.349,-8.005c10.93,-1.666 54.288,-1.181 59.928,0.703c0,15.486 -0.01,31.139 0.006,46.791c0.003,2.569 -0.125,5.166 0.216,7.696c0.691,5.092 3.23,7.073 8.382,6.946c4.761,-0.112 6.944,-2.02 7.629,-6.871c0.214,-1.516 0.125,-3.075 0.125,-4.619c0.003,-37.506 0.01,-75.014 -0.016,-112.523c0,-2.042 -0.019,-4.133 -0.439,-6.115c-0.815,-3.835 -3.628,-5.451 -7.32,-5.564c-3.66,-0.114 -6.695,1.261 -7.815,4.956c-0.656,2.155 -0.724,4.545 -0.734,6.834c-0.066,12.589 -0.009,25.176 -0.066,37.766c-0.009,1.936 -0.405,3.873 -0.633,5.919l-59.626,0Zm-363.756,-0.119c0,-5.562 0.01,-10.151 0,-14.74c-0.026,-11.049 0.122,-22.102 -0.166,-33.141c-0.136,-5.108 -3.098,-7.522 -7.88,-7.484c-4.845,0.038 -7.405,2.466 -7.836,7.547c-0.132,1.531 -0.047,3.082 -0.047,4.623c-0.003,37.254 -0.003,74.509 0,111.764c0,1.795 -0.047,3.603 0.109,5.389c0.34,3.899 2.536,5.946 6.44,6.351c6.302,0.652 9.245,-1.923 9.317,-9.016c0.157,-14.9 0.057,-29.802 0.063,-44.705l0,-8.712l60.37,0c0,8.979 -0.009,17.424 0.003,25.872c0.015,9.763 -0.176,19.534 0.173,29.283c0.188,5.307 2.818,7.296 7.961,7.313c5.102,0.014 7.413,-1.999 8.081,-7.276c0.225,-1.772 0.141,-3.589 0.141,-5.384c0.006,-36.741 0.009,-73.481 -0.004,-110.221c-0.003,-2.053 0.104,-4.146 -0.238,-6.151c-0.838,-4.892 -4.656,-7.421 -9.543,-6.568c-4.588,0.801 -6.474,3.368 -6.53,9.757c-0.119,12.587 -0.019,25.176 -0.063,37.766c-0.009,2.477 -0.263,4.956 -0.423,7.733l-59.928,0Zm-365.839,13.27c0,-2.825 0.211,-5.668 -0.034,-8.472c-1.666,-19.042 -8.028,-36.101 -22.173,-49.472c-10.781,-10.192 -23.709,-13.93 -38.387,-11.121c-10.405,1.992 -18.256,7.945 -24.487,16.191c-14.438,19.109 -18.362,40.906 -15.906,64.184c1.603,15.185 7.096,28.86 16.936,40.657c5.901,7.073 13.04,12.467 22.071,14.736c16.894,4.244 31.664,0.301 43.455,-12.691c13.86,-15.272 18.77,-33.832 18.525,-54.012m-126.573,-0.022c0,-2.828 0.211,-5.67 -0.035,-8.476c-1.554,-17.63 -7.246,-33.636 -19.47,-46.77c-11.139,-11.965 -24.887,-16.851 -41.141,-13.791c-10.997,2.07 -19.053,8.626 -25.424,17.422c-13.858,19.139 -17.464,40.782 -14.869,63.738c1.713,15.169 7.376,28.791 17.367,40.469c5.996,7.003 13.245,12.191 22.33,14.309c18.718,4.368 34,-1.39 45.711,-16.387c11.556,-14.8 15.782,-32.031 15.531,-50.514m168.115,-31.86c0.517,-0.22 1.032,-0.44 1.547,-0.662c1.606,2.196 3.275,4.351 4.814,6.596c19.176,27.956 38.319,55.936 57.522,83.873c1.736,2.527 3.413,5.47 5.873,7.008c2.338,1.456 5.772,2.071 8.535,1.69c3.269,-0.451 3.708,-3.808 3.802,-6.746c0.049,-1.541 0.043,-3.085 0.043,-4.625c0.002,-37.25 0.002,-74.502 0,-111.75c0,-1.541 0.07,-3.088 -0.041,-4.622c-0.397,-5.498 -2.463,-7.672 -7.406,-7.908c-5.341,-0.257 -7.993,2.015 -8.545,7.566c-0.23,2.291 -0.14,4.617 -0.141,6.929c-0.008,25.689 0.006,51.379 -0.027,77.068c-0.001,2.04 -0.304,4.079 -0.466,6.119c-2.865,-1.93 -4.352,-3.973 -5.79,-6.054c-18.973,-27.473 -37.914,-54.969 -56.94,-82.405c-1.88,-2.714 -3.882,-5.592 -6.478,-7.509c-5.829,-4.303 -11.93,-1.375 -12.772,5.793c-0.179,1.521 -0.096,3.078 -0.096,4.619c-0.005,37.252 -0.009,74.501 0.011,111.752c0,2.047 -0.035,4.143 0.363,6.132c0.884,4.433 2.98,6.072 7.441,6.266c6.353,0.274 8.713,-2.433 8.731,-10.54c0.055,-26.717 0.02,-53.435 0.02,-80.152l0,-8.438Zm251.46,40.712c9.874,-1.16 17.798,-4.861 23.89,-11.943c13.091,-15.223 11.152,-42.841 -3.93,-56.067c-7.487,-6.569 -16.377,-9.471 -26.199,-9.528c-17.206,-0.1 -34.415,-0.062 -51.621,-0.016c-1.687,0.007 -3.371,0.503 -5.085,0.772c-0.13,2.018 -0.315,3.546 -0.316,5.078c-0.016,39.807 -0.013,79.615 -0.008,119.422c0,1.283 -0.064,2.585 0.113,3.847c0.658,4.688 2.945,6.605 7.794,6.676c5.004,0.065 7.24,-1.579 8.043,-6.349c0.379,-2.26 0.329,-4.603 0.334,-6.91c0.029,-12.584 -0.008,-25.171 0.036,-37.754c0.009,-2.461 0.282,-4.924 0.461,-7.833c6.666,0 12.574,0.33 18.43,-0.101c4.946,-0.36 7.992,1.316 10.78,5.461c8.736,12.995 17.905,25.701 26.92,38.507c2.809,3.988 5.496,8.077 8.537,11.881c2.845,3.563 6.768,4.085 10.211,1.851c3.463,-2.249 4.976,-6.26 3.401,-10.063c-0.869,-2.103 -2.288,-4.002 -3.599,-5.889c-7.911,-11.392 -15.873,-22.743 -23.784,-34.131c-1.431,-2.056 -2.701,-4.223 -4.408,-6.911m-569.377,-44.237c0.2,3.986 0.427,6.425 0.43,8.865c0.025,26.728 0.014,53.455 0.018,80.185c0,2.055 -0.128,4.13 0.104,6.158c0.593,5.197 2.964,7.25 8.09,7.273c5.127,0.022 7.556,-2.012 8.245,-7.14c0.236,-1.77 0.124,-3.59 0.124,-5.389c0.006,-36.495 0.008,-72.987 -0.005,-109.479c-0.001,-2.053 0.12,-4.155 -0.256,-6.148c-1.413,-7.522 -8.301,-10.465 -14.543,-5.972c-2.631,1.899 -4.79,4.638 -6.693,7.327c-9.645,13.636 -19.125,27.387 -28.689,41.077c-1.426,2.043 -2.979,3.995 -4.928,6.6c-1.899,-2.538 -3.45,-4.488 -4.867,-6.53c-9.37,-13.516 -18.693,-27.06 -28.084,-40.56c-1.461,-2.096 -2.956,-4.274 -4.853,-5.944c-3.546,-3.119 -7.845,-3.787 -12.278,-2.211c-4.531,1.609 -4.631,5.669 -4.782,9.586c-0.039,1.03 -0.021,2.055 -0.021,3.084c0,36.237 -0.003,72.475 0.008,108.713c0.002,2.052 -0.07,4.133 0.22,6.15c0.743,5.154 3.08,6.964 8.436,6.833c5.188,-0.129 7.273,-2.113 7.704,-7.535c0.162,-2.047 0.063,-4.112 0.063,-6.166c0.002,-26.985 0.002,-53.972 0.002,-80.957l0,-7.358c2.531,1.189 3.811,2.623 4.865,4.211c7.391,11.127 14.729,22.293 22.103,33.433c1.132,1.71 2.205,3.502 3.572,5.011c4.376,4.833 10.199,5.084 14.916,0.572c1.648,-1.578 2.95,-3.549 4.261,-5.445c7.303,-10.569 14.544,-21.179 21.845,-31.751c1.242,-1.801 2.664,-3.476 4.993,-6.493m1169.34,23.532c-2.171,-3.011 -3.698,-5.061 -5.15,-7.161c-9.212,-13.307 -18.376,-26.651 -27.629,-39.927c-1.607,-2.304 -3.324,-4.652 -5.439,-6.443c-3.625,-3.073 -8.018,-3.506 -12.333,-1.698c-3.947,1.656 -4.246,5.441 -4.354,9.129c-0.042,1.283 -0.017,2.569 -0.017,3.853c-0.003,35.979 -0.003,71.955 0,107.934c0,1.798 -0.098,3.611 0.081,5.394c0.581,5.752 2.903,7.885 8.355,7.868c5.516,-0.023 7.712,-2.124 8.133,-7.965c0.147,-2.046 0.05,-4.111 0.05,-6.167c0,-27.241 -0.009,-54.483 0.023,-81.721c0.003,-2.093 0.31,-4.182 0.476,-6.273c7.086,8.577 12.857,17.338 18.647,26.087c3.546,5.357 6.873,10.879 10.748,15.985c4.374,5.766 10.904,5.963 15.941,0.803c1.6,-1.637 2.861,-3.62 4.17,-5.522c7.576,-11.006 15.094,-22.049 22.701,-33.032c0.885,-1.277 2.188,-2.265 4.297,-4.402l0,9.106c0,26.47 -0.004,52.94 0,79.408c0,2.057 -0.11,4.124 0.067,6.166c0.475,5.386 2.622,7.398 7.781,7.519c5.212,0.127 7.603,-1.766 8.425,-6.915c0.28,-1.761 0.21,-3.587 0.21,-5.381c0.009,-36.751 0.009,-73.501 -0.006,-110.251c0,-1.791 0.044,-3.624 -0.282,-5.372c-1.478,-7.989 -8.445,-10.823 -15.001,-5.897c-2.4,1.805 -4.355,4.35 -6.109,6.838c-9.624,13.648 -19.12,27.389 -28.676,41.084c-1.44,2.065 -2.977,4.06 -5.109,6.953m-380.706,-551.995c-2.514,2.326 -4.28,4.095 -6.185,5.703c-25.209,21.309 -55.039,31.377 -87.185,35.795c-28.12,3.864 -56.404,3.026 -84.665,3.098c-35.969,0.091 -71.947,-0.051 -107.895,0.929c-33.135,0.9 -66.114,4.427 -98.829,9.907c-36.416,6.1 -71.698,15.866 -104.569,33.231c-31.537,16.663 -56.694,39.675 -72.532,72.108c-9.933,20.34 -15.211,41.93 -17.348,64.371c-0.452,4.731 -0.895,9.467 -1.441,15.25c-72.954,-33.169 -135.543,-79.003 -189.748,-136.603c106.85,175.117 337.132,314.13 606.47,268.913c271.971,-45.659 483.026,-274.367 499.482,-558.098c15.158,-261.322 -137.741,-466.537 -298.927,-553.951c72.526,62.104 127.404,136.982 164.101,225.191c41.906,100.728 49.089,208.673 40.315,275.341c-0.104,-0.23 -0.273,-0.449 -0.302,-0.686c-0.332,-2.805 -0.605,-5.618 -0.969,-8.42c-7.337,-56.545 -35.743,-98.6 -86.254,-125.491c-2.453,-1.305 -4.904,-2.888 -6.838,-4.853c-16.383,-16.644 -35.892,-28.185 -57.883,-35.647c-9.858,-3.346 -19.893,-6.114 -30.998,-7.008c4.901,7.162 9.706,13.473 13.754,20.236c11.316,18.902 18.307,39.582 23.977,60.737c9.939,37.084 15.632,74.882 18.449,113.119c0.487,6.607 2.476,10.667 8.756,14.333c40.513,23.656 47.303,80.4 14.049,113.46c-27.647,27.486 -71.64,28.069 -101.187,1.34c-27.389,-24.773 -30.251,-69.333 -6.42,-98.675c7.088,-8.73 15.947,-15.147 26.265,-20.438c-1.045,-9.277 -1.952,-18.441 -3.132,-27.572c-4.647,-36.005 -11.601,-71.516 -23.78,-105.82c-7.246,-20.411 -15.913,-40.22 -29.369,-57.405c-10.968,-14.012 -7.535,-11.805 -22.758,-7.7c-14.601,3.937 -28.75,9.503 -43.211,13.996c-27.231,8.46 -52.559,20.742 -75.668,37.434c-26.077,18.833 -47.099,42.046 -60.414,71.658c-15.182,33.76 -17.403,68.998 -10.758,104.907c2.797,15.119 6.764,30.076 11.125,44.834c4.726,15.982 10.079,31.816 16.027,47.385c4.091,10.718 9.649,20.877 17.297,29.796c-6.458,-14.794 -11.63,-29.944 -14.655,-45.782c-4.378,-22.908 -5.52,-39.236 -3.194,-48.424c16.443,53.062 44.443,96.271 97.875,118.517c-10.327,-17.055 -18.565,-34.821 -22.455,-54.39c-3.945,-19.823 -3.882,-39.458 1.889,-59.171c1.27,0.58 1.923,0.658 2.146,1.01c8.918,14.107 17.912,28.168 26.532,42.455c1.105,1.828 0.923,5.112 0.126,7.274c-2.376,6.426 -5.353,12.631 -8.464,19.767c4.237,6.972 8.65,14.808 13.607,22.281c13.563,20.453 28.802,39.435 49.054,53.811c7.397,5.249 14.866,10.336 24.721,7.198c0.195,-0.061 0.478,0.163 2.016,0.749m-1628.94,-925.595l2706.95,0l0,1912.61c-902.319,0.003 -1804.64,0.003 -2706.95,0.003c0,-637.535 0,-1275.07 -0.002,-1912.61" style="fill:#fff;"/><path d="M358.107,1046.38c0.729,-1.886 1.447,-3.488 1.979,-5.156c3.249,-10.167 8.109,-19.6 15.234,-27.433c8.438,-9.272 16.95,-18.788 26.818,-26.396c28.791,-22.2 61.381,-37.193 96.192,-47.37c28.882,-8.445 58.574,-13.161 88.103,-18.593c34.368,-6.321 68.362,-14.137 101.702,-24.706c35.413,-11.222 69.356,-25.581 100.389,-46.28c2.208,-1.474 4.369,-3.025 6.549,-4.542c-0.254,-0.442 -0.508,-0.881 -0.765,-1.321c-2.75,1.144 -5.498,2.285 -8.247,3.437c-17.304,7.249 -34.921,13.532 -53.124,18.214c-28.727,7.383 -58.039,10.697 -87.494,12.957c-39.721,3.041 -79.128,8.146 -118.188,16.082c-35.164,7.142 -69.146,17.451 -100.867,34.613c-25.36,13.717 -47.14,31.066 -60.595,57.31c-8.611,16.795 -12.963,34.538 -12.061,53.47c0.119,2.473 -0.439,5.439 4.375,5.714m503.236,-268.245c-1.538,-0.586 -1.82,-0.811 -2.016,-0.75c-9.855,3.139 -17.324,-1.948 -24.72,-7.198c-20.253,-14.375 -35.492,-33.358 -49.055,-53.81c-4.957,-7.474 -9.37,-15.309 -13.607,-22.282c3.111,-7.136 6.088,-13.34 8.464,-19.767c0.797,-2.161 0.979,-5.446 -0.126,-7.274c-8.62,-14.287 -17.614,-28.348 -26.532,-42.455c-0.223,-0.351 -0.876,-0.429 -2.146,-1.009c-5.771,19.713 -5.834,39.347 -1.889,59.17c3.891,19.569 12.128,37.336 22.455,54.391c-53.432,-22.246 -81.432,-65.456 -97.875,-118.517c-2.326,9.188 -1.184,25.516 3.194,48.423c3.025,15.839 8.197,30.989 14.655,45.783c-7.648,-8.919 -13.205,-19.078 -17.297,-29.796c-5.948,-15.57 -11.301,-31.404 -16.027,-47.386c-4.361,-14.757 -8.328,-29.715 -11.125,-44.834c-6.645,-35.909 -4.423,-71.146 10.758,-104.907c13.315,-29.612 34.337,-52.825 60.414,-71.658c23.109,-16.691 48.437,-28.973 75.668,-37.434c14.461,-4.493 28.61,-10.058 43.211,-13.995c15.223,-4.106 11.79,-6.312 22.758,7.699c13.456,17.186 22.123,36.995 29.369,57.406c12.179,34.304 19.133,69.814 23.78,105.82c1.18,9.131 2.087,18.295 3.132,27.572c-10.318,5.29 -19.177,11.708 -26.265,20.438c-23.831,29.342 -20.969,73.901 6.42,98.675c29.547,26.728 73.541,26.145 101.187,-1.34c33.254,-33.06 26.464,-89.804 -14.049,-113.46c-6.28,-3.667 -8.269,-7.727 -8.756,-14.333c-2.817,-38.238 -8.509,-76.036 -18.449,-113.119c-5.67,-21.156 -12.661,-41.835 -23.977,-60.738c-4.048,-6.762 -8.853,-13.073 -13.754,-20.236c11.105,0.895 21.14,3.663 30.998,7.009c21.991,7.461 41.5,19.002 57.883,35.647c1.934,1.964 4.385,3.547 6.838,4.853c50.511,26.89 78.917,68.945 86.254,125.491c0.364,2.801 0.637,5.614 0.969,8.419c0.029,0.237 0.198,0.457 0.302,0.686c8.774,-66.668 1.591,-174.613 -40.315,-275.34c-36.697,-88.209 -91.575,-163.088 -164.101,-225.192c161.186,87.414 314.085,292.629 298.928,553.951c-16.457,283.732 -227.512,512.44 -499.483,558.099c-269.338,45.217 -499.62,-93.797 -606.47,-268.913c54.205,57.6 116.794,103.434 189.748,136.602c0.546,-5.783 0.989,-10.518 1.441,-15.25c2.137,-22.44 7.415,-44.031 17.348,-64.371c15.838,-32.432 40.995,-55.444 72.532,-72.107c32.871,-17.365 68.153,-27.132 104.57,-33.231c32.714,-5.48 65.693,-9.007 98.828,-9.908c35.948,-0.979 71.926,-0.838 107.895,-0.928c28.261,-0.073 56.545,0.765 84.665,-3.098c32.146,-4.418 61.976,-14.486 87.185,-35.795c1.905,-1.609 3.671,-3.377 6.185,-5.703"/><path d="M358.107,1046.38c-4.814,-0.275 -4.256,-3.241 -4.375,-5.714c-0.902,-18.932 3.45,-36.675 12.061,-53.47c13.455,-26.244 35.235,-43.593 60.595,-57.31c31.721,-17.162 65.703,-27.471 100.867,-34.613c39.06,-7.936 78.467,-13.041 118.188,-16.082c29.455,-2.26 58.767,-5.574 87.494,-12.957c18.203,-4.682 35.82,-10.965 53.124,-18.214c2.749,-1.152 5.497,-2.293 8.247,-3.437c0.257,0.44 0.511,0.879 0.765,1.321c-2.18,1.517 -4.341,3.068 -6.549,4.542c-31.033,20.699 -64.976,35.058 -100.389,46.28c-33.34,10.569 -67.334,18.385 -101.702,24.706c-29.529,5.432 -59.221,10.148 -88.103,18.593c-34.811,10.177 -67.401,25.17 -96.192,47.37c-9.868,7.608 -18.38,17.124 -26.818,26.396c-7.125,7.833 -11.985,17.266 -15.234,27.433c-0.532,1.668 -1.25,3.27 -1.979,5.156" style="fill:#fff;"/></g></g></svg>